<?xml version="1.0" encoding="UTF-8" standalone="no"?>
<svg
   xmlns:dc="http://purl.org/dc/elements/1.1/"
   xmlns:cc="http://creativecommons.org/ns#"
   xmlns:rdf="http://www.w3.org/1999/02/22-rdf-syntax-ns#"
   xmlns:svg="http://www.w3.org/2000/svg"
   xmlns="http://www.w3.org/2000/svg"
   xmlns:xlink="http://www.w3.org/1999/xlink"
   xmlns:sodipodi="http://sodipodi.sourceforge.net/DTD/sodipodi-0.dtd"
   xmlns:inkscape="http://www.inkscape.org/namespaces/inkscape"
   width="2271.4375"
   height="1665.7122"
   id="svg2"
   version="1.1"
   inkscape:version="0.48.4 r9939"
   sodipodi:docname="nice-landscape-cartoon.svg"
   inkscape:export-filename="C:\Users\D-side\Desktop\nice-landscape-cartoon.png"
   inkscape:export-xdpi="90"
   inkscape:export-ydpi="90">
  <sodipodi:namedview
     pagecolor="#6fc4ff"
     bordercolor="#666666"
     borderopacity="1"
     objecttolerance="10"
     gridtolerance="10"
     guidetolerance="10"
     inkscape:pageopacity="1"
     inkscape:pageshadow="2"
     inkscape:window-width="1366"
     inkscape:window-height="745"
     id="namedview177"
     showgrid="false"
     inkscape:zoom="0.28336228"
     inkscape:cx="1041.7796"
     inkscape:cy="983.50216"
     inkscape:window-x="-8"
     inkscape:window-y="-8"
     inkscape:window-maximized="1"
     inkscape:current-layer="layer2" />
  <defs
     id="defs4">
    <linearGradient
       id="linearGradient4641">
      <stop
         stop-color="#fcaf3e"
         id="stop4643"
         offset="0" />
      <stop
         stop-color="#ffce86"
         id="stop4645"
         offset="1" />
    </linearGradient>
    <linearGradient
       id="linearGradient4368">
      <stop
         stop-color="#69d007"
         offset="0"
         id="stop4370" />
      <stop
         stop-color="#4e9a06"
         stop-opacity="0"
         offset="1"
         id="stop4372" />
    </linearGradient>
    <linearGradient
       id="linearGradient4336">
      <stop
         stop-color="#458905"
         id="stop4338"
         offset="0" />
      <stop
         stop-color="#4e9a06"
         stop-opacity="0"
         id="stop4340"
         offset="1" />
    </linearGradient>
    <linearGradient
       id="linearGradient4328">
      <stop
         stop-color="#8f5902"
         id="stop4330"
         offset="0" />
      <stop
         stop-color="#724701"
         id="stop4332"
         offset="1" />
    </linearGradient>
    <linearGradient
       id="linearGradient4238">
      <stop
         stop-color="#55a800"
         id="stop4240"
         offset="0" />
      <stop
         stop-color="#74e400"
         id="stop4242"
         offset="1" />
    </linearGradient>
    <linearGradient
       id="linearGradient4191">
      <stop
         stop-color="#007900"
         id="stop4193"
         offset="0" />
      <stop
         stop-color="#008400"
         stop-opacity="0"
         id="stop4195"
         offset="1" />
    </linearGradient>
    <linearGradient
       id="linearGradient4180">
      <stop
         stop-color="#00a400"
         id="stop4182"
         offset="0" />
      <stop
         stop-color="#00a400"
         stop-opacity="0"
         id="stop4184"
         offset="1" />
    </linearGradient>
    <linearGradient
       id="linearGradient4103">
      <stop
         stop-color="#00acf4"
         id="stop4105"
         offset="0" />
      <stop
         stop-color="#a6e5ff"
         id="stop4107"
         offset="1" />
    </linearGradient>
    <linearGradient
       y2="1.000097"
       x2="0.474214"
       y1="-0.189418"
       x1="0.474214"
       id="linearGradient4109"
       xlink:href="#linearGradient4103" />
    <linearGradient
       y2="0.524211"
       x2="0.490848"
       y1="-0.488398"
       x1="0.492076"
       id="linearGradient4200"
       xlink:href="#linearGradient4191" />
    <clipPath
       id="clipPath4234"
       clipPathUnits="userSpaceOnUse">
      <path
         fill="#9cf000"
         stroke-width="3"
         stroke-linecap="round"
         stroke-linejoin="round"
         stroke-miterlimit="4"
         stroke-dashoffset="0"
         id="path4236"
         d="m-701.794556,85.707787c-11.65564,0 -21.0625,5.752144 -21.0625,12.875l0,830.031227c73.681519,-9.907227 153.852417,-15.0625 237.156128,-15.0625c343.817139,0 484.305725,44.117554 822.843781,235.71875c342.857147,194.045776 775.268036,461.424072 -891.406281,464.28125c-60.104736,0.103271 -116.483887,-9.398071 -168.593628,-25.937378l0,150.96875c0,7.122803 9.40686,12.843994 21.0625,12.843628l2229.343628,0c11.655518,0 21.03125,-5.720825 21.03125,-12.843628l0,-640.000122l0,-67.40625l0,-932.593727c0,-7.122856 -9.375732,-12.875 -21.03125,-12.875l-2229.343628,0z" />
    </clipPath>
    <clipPath
       id="clipPath4253"
       clipPathUnits="userSpaceOnUse">
      <path
         fill="url(#linearGradient4257)"
         stroke-width="3"
         stroke-linecap="round"
         stroke-linejoin="round"
         stroke-miterlimit="4"
         stroke-dashoffset="0"
         id="path4255"
         d="m272.491058,62.850647c-11.655579,0 -21.0625,5.752136 -21.0625,12.874992l0,830.031258l0,169.968689l0,640c0,7.122925 9.406952,12.843994 21.0625,12.84375l2229.343903,0c11.655273,0 21.031006,-5.720947 21.031006,-12.84375l0,-640l0,-67.40625l0,-932.593697c0,-7.122856 -9.375732,-12.874992 -21.031006,-12.874992l-2229.343903,0z" />
    </clipPath>
    <linearGradient
       y2="0.615842"
       x2="0.474216"
       y1="-0.116636"
       x1="0.474216"
       id="linearGradient4257"
       xlink:href="#linearGradient4103" />
    <linearGradient
       y2="0.581632"
       x2="0.357287"
       y1="-0.120598"
       x1="0.357287"
       id="linearGradient4261"
       xlink:href="#linearGradient4180" />
    <linearGradient
       y2="1.425902"
       x2="0.510673"
       y1="-0.070132"
       x1="0.5"
       id="linearGradient4263"
       xlink:href="#linearGradient4238" />
    <linearGradient
       y2="inf"
       x2="nan"
       y1="inf"
       x1="nan"
       id="linearGradient4382"
       xlink:href="#linearGradient4336"
       gradientTransform="scale(0.96302618,1.0383934)"
       gradientUnits="userSpaceOnUse" />
    <linearGradient
       y2="-inf"
       x2="nan"
       y1="-inf"
       x1="nan"
       id="linearGradient4384"
       xlink:href="#linearGradient4368"
       gradientTransform="scale(1.0634624,0.94032472)"
       gradientUnits="userSpaceOnUse" />
    <linearGradient
       y2="inf"
       x2="nan"
       y1="-inf"
       x1="nan"
       id="linearGradient4386"
       xlink:href="#linearGradient4368"
       gradientTransform="scale(1.0609116,0.94258557)"
       gradientUnits="userSpaceOnUse" />
    <linearGradient
       y2="-inf"
       x2="nan"
       y1="inf"
       x1="nan"
       id="linearGradient4388"
       xlink:href="#linearGradient4336"
       gradientTransform="scale(1.0377491,0.9636241)"
       gradientUnits="userSpaceOnUse" />
    <linearGradient
       y2="1207.113"
       x2="-1326.8503"
       y1="1207.113"
       x1="-1605.8806"
       id="linearGradient4390"
       xlink:href="#linearGradient4328"
       gradientTransform="scale(0.61637838,1.6223801)"
       gradientUnits="userSpaceOnUse" />
    <filter
       id="filter4635"
       height="2.260247"
       y="-0.630123"
       width="1.382322"
       x="-0.191161">
      <feGaussianBlur
         id="feGaussianBlur4637"
         stdDeviation="40.507936" />
    </filter>
    <radialGradient
       gradientUnits="userSpaceOnUse"
       gradientTransform="matrix(1.3896636,0.7071731,-0.555426,1.0914658,234.03392,455.11869)"
       r="284.19949"
       fy="-27.637817"
       fx="-640"
       cy="-27.637817"
       cx="-640"
       id="radialGradient4647"
       xlink:href="#linearGradient4641" />
    <filter
       id="filter4962"
       height="1.528696"
       y="-0.264348"
       width="1.496326"
       x="-0.248163">
      <feGaussianBlur
         id="feGaussianBlur4964"
         stdDeviation="57.904762" />
    </filter>
    <filter
       id="filter5183"
       height="1.595822"
       y="-0.297911"
       width="1.260664"
       x="-0.130332">
      <feGaussianBlur
         id="feGaussianBlur5185"
         stdDeviation="24.825904" />
    </filter>
    <clipPath
       id="clipPath5381"
       clipPathUnits="userSpaceOnUse">
      <path
         opacity="0.893333"
         fill="#fdfdfd"
         stroke-width="5"
         stroke-linecap="round"
         stroke-linejoin="round"
         stroke-miterlimit="4"
         stroke-dashoffset="0"
         id="path5383"
         d="m798.213013,156.399796c-48.512512,0 -90.277039,11.929932 -108.884583,29.029007c-4.26886,-0.294815 -8.609497,-0.457611 -13.019836,-0.457581c-57.891602,0 -104.884521,26.515869 -104.884521,59.185257c0,28.591507 35.995605,52.464554 83.786011,57.979904c14.848328,30.919403 81.280579,54.263397 160.924805,54.263428c90.548401,0 164.042603,-30.168274 164.042603,-67.343781l-0.117676,-1.082581c29.333679,-9.232056 48.520508,-24.501556 48.520508,-41.774582l-0.421509,-4.386139c-5.100586,-26.509354 -53.967407,-46.620636 -113.325806,-46.64064c-11.480103,-22.433395 -59.405518,-38.772324 -116.619995,-38.772293z" />
    </clipPath>
    <filter
       id="filter5445"
       height="1.437617"
       y="-0.218809"
       width="1.191452"
       x="-0.095726">
      <feGaussianBlur
         id="feGaussianBlur5447"
         stdDeviation="18.234042" />
    </filter>
    <clipPath
       id="clipPath5495"
       clipPathUnits="userSpaceOnUse">
      <path
         opacity="0.893333"
         fill="#fdfdfd"
         stroke-width="5"
         stroke-linecap="round"
         stroke-linejoin="round"
         stroke-miterlimit="4"
         stroke-dashoffset="0"
         d="m1832.498657,64.971237c-48.512451,0 -90.276978,11.929924 -108.884521,29.028992c-4.268921,-0.294823 -8.609497,-0.457611 -13.019897,-0.457573c-57.891602,0 -104.884399,26.515862 -104.884399,59.185249c0,28.591507 35.995483,52.464569 83.786011,57.979889c14.848267,30.919434 81.280518,54.263397 160.924805,54.263428c90.54834,0 164.042603,-30.168243 164.042603,-67.343781l-0.117798,-1.082565c29.33374,-9.23204 48.520508,-24.501541 48.520508,-41.774582l-0.421631,-4.386139c-5.100586,-26.509354 -53.967285,-46.620636 -113.325684,-46.640633c-11.480103,-22.433403 -59.405396,-38.772331 -116.619995,-38.772285z"
         id="path5497" />
    </clipPath>
    <filter
       id="filter5575"
       height="1.438104"
       y="-0.219052"
       width="1.191665"
       x="-0.095832">
      <feGaussianBlur
         id="feGaussianBlur5577"
         stdDeviation="18.254341" />
    </filter>
    <clipPath
       id="clipPath5671"
       clipPathUnits="userSpaceOnUse">
      <rect
         fill="url(#linearGradient5675)"
         stroke-width="3"
         stroke-linecap="round"
         stroke-linejoin="round"
         stroke-miterlimit="4"
         stroke-dashoffset="0"
         ry="21.597332"
         rx="35.341087"
         y="-42.65996"
         x="-59.71918"
         height="1722.9872"
         width="3815.5286"
         id="rect5673" />
    </clipPath>
    <linearGradient
       y2="1.000097"
       x2="0.474214"
       y1="-0.189418"
       x1="0.474214"
       id="linearGradient5675"
       xlink:href="#linearGradient4103" />
    <clipPath
       id="clipPath5677"
       clipPathUnits="userSpaceOnUse">
      <rect
         fill="url(#linearGradient5681)"
         stroke-width="3"
         stroke-linecap="round"
         stroke-linejoin="round"
         stroke-miterlimit="4"
         stroke-dashoffset="0"
         id="rect5679"
         width="3599.5803"
         height="1625.4709"
         x="-51.16412"
         y="-30.42346"
         rx="33.340881"
         ry="20.374983" />
    </clipPath>
    <linearGradient
       y2="1.000097"
       x2="0.474214"
       y1="-0.189418"
       x1="0.474214"
       id="linearGradient5681"
       xlink:href="#linearGradient4103" />
    <clipPath
       id="clipPath5495-1"
       clipPathUnits="userSpaceOnUse">
      <path
         style="opacity:0.89333311;fill:#fdfdfd;stroke-width:5;stroke-linecap:round;stroke-linejoin:round;stroke-miterlimit:4;stroke-dashoffset:0"
         inkscape:connector-curvature="0"
         stroke-miterlimit="4"
         d="m 1832.4987,64.971237 c -48.5125,0 -90.277,11.929924 -108.8846,29.028992 -4.2689,-0.294823 -8.6095,-0.457611 -13.0199,-0.457573 -57.8916,0 -104.8844,26.515864 -104.8844,59.185254 0,28.5915 35.9955,52.46456 83.7861,57.97988 14.8482,30.91944 81.2805,54.2634 160.9248,54.26343 90.5483,0 164.0426,-30.16824 164.0426,-67.34378 l -0.1178,-1.08256 c 29.3337,-9.23204 48.5205,-24.50154 48.5205,-41.77459 l -0.4217,-4.38613 c -5.1005,-26.50936 -53.9672,-46.62064 -113.3256,-46.64064 -11.4801,-22.433401 -59.4054,-38.772329 -116.62,-38.772283 z"
         id="path5497-7" />
    </clipPath>
    <filter
       color-interpolation-filters="sRGB"
       id="filter5575-4"
       height="1.438104"
       y="-0.219052"
       width="1.1916651"
       x="-0.095831998">
      <feGaussianBlur
         id="feGaussianBlur5577-0"
         stdDeviation="18.254341" />
    </filter>
  </defs>
  <metadata
     id="metadata7">image/svg+xmlSummer LandscapeCarlos AsmatsummergreenlandscapetreecloudsA simple summer landscape featuring green grass, a blue sky and white clouds.<rdf:RDF>
  <cc:Work
     rdf:about="">
    <dc:format>image/svg+xml</dc:format>
    <dc:type
       rdf:resource="http://purl.org/dc/dcmitype/StillImage" />
    <dc:title></dc:title>
  </cc:Work>
</rdf:RDF>
</metadata>
  <g
     id="g66">
    <title
       id="title68">Layer 1</title>
    <g
       externalResourcesRequired="false"
       display="inline"
       id="layer2">
      <path
         stroke-miterlimit="4"
         id="path4202"
         d="m1211.4375,804.96228c-215.17157,0 -379.221558,34.240723 -506.1875,86.40625c-139.692749,-48.926025 -270.224243,-63.53125 -468.09375,-63.53125c-83.302917,0 -163.475647,5.155029 -237.15625,15.0625l0,809.96875c0,7.122925 9.406921,12.84375 21.0625,12.84375l2229.34375,0c11.655518,0 21.03125,-5.720947 21.03125,-12.84375l0,-707.40625c-167.743164,0.928467 -334.178711,3.173767 -499.125,6.71875c-168.047485,-63.883789 -304.033447,-147.21875 -560.875,-147.21875z"
         stroke-dashoffset="0"
         stroke-linejoin="round"
         stroke-linecap="round"
         stroke-width="3"
         fill="url(#linearGradient4263)" />
    </g>
    <g
       display="inline"
       id="layer1">
      <path
         stroke-miterlimit="4"
         id="path5189"
         d="m813.935791,1047.828369c67.916931,0 126.386719,11.929932 152.437073,29.029053c5.976379,-0.2948 12.053223,-0.457642 18.227722,-0.457642c81.047485,0 146.837036,26.515869 146.837036,59.185303c0,28.591431 -50.393433,52.464478 -117.2995,57.979858c-20.787476,30.919434 -113.791809,54.263428 -225.292847,54.263428c-126.766663,0 -229.657715,-30.168213 -229.657715,-67.34375l0.164795,-1.08252c-41.066833,-9.232056 -67.928223,-24.501587 -67.928223,-41.774658l0.59021,-4.386108c7.140778,-26.509399 75.553711,-46.620605 158.654785,-46.640625c16.072021,-22.433472 83.166992,-38.772339 163.266663,-38.772339z"
         filter="url(#filter5183)"
         stroke-dashoffset="0"
         stroke-linejoin="round"
         stroke-linecap="round"
         stroke-width="5"
         fill="#000000"
         opacity="0.031111" />
      <path
         stroke-miterlimit="4"
         clip-path="url(#clipPath5381)"
         d="m 811.27991,167.82837 c 73.37439,0 136.5426,14.99763 164.68621,36.49361 6.45655,-0.37063 13.02173,-0.57529 19.69239,-0.57523 87.56009,0 158.63619,33.33421 158.63619,74.40431 0,35.94361 -54.4428,65.95545 -126.7251,72.88901 -22.4578,38.87015 -122.93569,68.21686 -243.39632,68.21689 -136.95307,0 -248.112,-37.92578 -248.112,-84.66074 l 0.17804,-1.36096 c -44.36679,-11.60602 -73.38666,-30.80194 -73.38666,-52.51663 l 0.63767,-5.51401 c 7.71453,-33.32603 81.62484,-58.60879 171.40359,-58.63394 17.36346,-28.20198 89.84991,-48.74236 176.38599,-48.74231 z"
         id="path5187"
         inkscape:connector-curvature="0"
         transform="translate(-209.61495,-64.880817)"
         style="fill:#fdfdfd;stroke-width:5;stroke-linecap:round;stroke-linejoin:round;stroke-miterlimit:4;stroke-dashoffset:0;filter:url(#filter5445)" />
      <path
         stroke-miterlimit="4"
         clip-path="url(#clipPath5677)"
         id="path4649"
         d="m266.681458,128.708221a176.687271,165.86969 0 1 1 -0.65332,-14.250671"
         filter="url(#filter4962)"
         stroke-dashoffset="0"
         stroke-linejoin="round"
         stroke-linecap="round"
         stroke-width="8.398963"
         fill="#f57900"
         opacity="0.288889" />
      <path
         stroke-miterlimit="4"
         clip-path="url(#clipPath5495)"
         id="path4984"
         d="m1832.498657,64.971237c-48.512451,0 -90.276978,11.929924 -108.884521,29.028992c-4.268921,-0.294823 -8.609497,-0.457611 -13.019897,-0.457573c-57.891602,0 -104.884399,26.515862 -104.884399,59.185249c0,28.591507 35.995483,52.464569 83.786011,57.979889c14.848267,30.919434 81.280518,54.263397 160.924805,54.263428c90.54834,0 164.042603,-30.168243 164.042603,-67.343781l-0.117798,-1.082565c29.33374,-9.23204 48.520508,-24.501541 48.520508,-41.774582l-0.421631,-4.386139c-5.100586,-26.509354 -53.967285,-46.620636 -113.325684,-46.640633c-11.480103,-22.433403 -59.405396,-38.772331 -116.619995,-38.772285z"
         filter="url(#filter5575)"
         stroke-dashoffset="0"
         stroke-linejoin="round"
         stroke-linecap="round"
         stroke-width="5"
         fill="#fdfdfd" />
      <path
         transform="translate(-528.53896,113.82382)"
         style="fill:#fdfdfd;stroke-width:5;stroke-linecap:round;stroke-linejoin:round;stroke-miterlimit:4;stroke-dashoffset:0;filter:url(#filter5575-4)"
         inkscape:connector-curvature="0"
         stroke-miterlimit="4"
         clip-path="url(#clipPath5495-1)"
         id="path4984-9"
         d="m 1832.4987,64.971237 c -48.5125,0 -90.277,11.929924 -108.8846,29.028992 -4.2689,-0.294823 -8.6095,-0.457611 -13.0199,-0.457573 -57.8916,0 -104.8844,26.515864 -104.8844,59.185254 0,28.5915 35.9955,52.46456 83.7861,57.97988 14.8482,30.91944 81.2805,54.2634 160.9248,54.26343 90.5483,0 164.0426,-30.16824 164.0426,-67.34378 l -0.1178,-1.08256 c 29.3337,-9.23204 48.5205,-24.50154 48.5205,-41.77459 l -0.4217,-4.38613 c -5.1005,-26.50936 -53.9672,-46.62064 -113.3256,-46.64064 -11.4801,-22.433401 -59.4054,-38.772329 -116.62,-38.772283 z" />
      <g
         transform="matrix(1.3982508,0,0,1.3982508,2451.7762,-2014.6319)"
         id="g4374">
        <path
           stroke-miterlimit="4"
           d="m -972.47229,753.89331 c -94.87521,0 -178.40771,43.14325 -226.93751,108.40625 -152.3122,26.53241 -267.3437,145.77134 -267.3437,288.75004 0,76.8278 33.2314,146.7917 87.5937,199.2187 -1.2297,10.5797 -1.875,21.3372 -1.875,32.2188 0,164.0229 143.3601,297.125 320,297.125 87.11256,0 166.12281,-32.3829 223.84376,-84.875 39.23047,17.8549 82.35864,27.75 127.59375,27.75 181.37146,0 328.5625,-158.7469 328.5625,-354.3125 0,-195.5657 -147.19104,-354.28129 -328.5625,-354.28129 -2.30249,0 -4.61499,0.0428 -6.90625,0.0937 -37.26733,-93.21893 -137.83252,-160.09375 -255.96875,-160.09375 z"
           id="path4314"
           inkscape:connector-curvature="0"
           style="fill:#4e9a06;stroke-width:3;stroke-linecap:round;stroke-linejoin:round;stroke-miterlimit:4;stroke-dashoffset:0" />
        <path
           stroke-miterlimit="4"
           id="path4305"
           d="m -381.03931,1268.1879 a 328.57149,354.28579 0 1 1 -657.14299,0 328.5715,354.28577 0 1 1 657.14299,0 z"
           style="fill:url(#linearGradient4382);stroke-width:3;stroke-linecap:round;stroke-linejoin:round;stroke-miterlimit:4;stroke-dashoffset:0"
           inkscape:connector-curvature="0" />
        <path
           stroke-miterlimit="4"
           id="path4301"
           d="m -701.03931,993.90222 a 271.42859,240.00003 0 1 1 -542.85719,0 271.42859,240.00003 0 1 1 542.85719,0 z"
           style="fill:url(#linearGradient4384);stroke-width:3;stroke-linecap:round;stroke-linejoin:round;stroke-miterlimit:4;stroke-dashoffset:0"
           inkscape:connector-curvature="0" />
        <path
           stroke-miterlimit="4"
           id="path4303"
           d="m -803.89654,1151.045 a 331.42856,294.28571 0 1 1 -662.85696,0 331.42856,294.28571 0 1 1 662.85696,0 z"
           style="fill:url(#linearGradient4386);stroke-width:3;stroke-linecap:round;stroke-linejoin:round;stroke-miterlimit:4;stroke-dashoffset:0"
           inkscape:connector-curvature="0" />
        <path
           stroke-miterlimit="4"
           id="path4307"
           d="m -741.03918,1382.4736 a 320.00001,297.14286 0 1 1 -640.00002,0 320,297.14285 0 1 1 640.00001,0 z"
           style="opacity:0.31111103;fill:url(#linearGradient4388);stroke-width:3;stroke-linecap:round;stroke-linejoin:round;stroke-miterlimit:4;stroke-dashoffset:0"
           inkscape:connector-curvature="0" />
        <path
           stroke-miterlimit="4"
           d="m -1076.5697,1505.702 c 167.6853,278.8022 150.51269,-74.7512 238.39599,44.4468 -61.61938,349.5128 50.50757,480.8325 12.12183,848.5282 -123.23877,44.4468 -110.10669,-46.467 -335.37062,-24.2439 -7.0713,-341.4314 82.8325,-626.2943 84.8528,-868.7311 z"
           id="rect4323"
           style="fill:url(#linearGradient4390);stroke-width:3;stroke-linecap:round;stroke-linejoin:round;stroke-miterlimit:4;stroke-dashoffset:0"
           inkscape:connector-curvature="0" />
      </g>
      <path
         stroke-miterlimit="4"
         d="m177.634399,1302.807373c-4.183411,1.426636 -5.229797,4.703003 -8.74231,9.602417c-4.570862,8.407837 -13.829285,33.589233 -12.787598,37.706787c1.380615,7.417358 13.011841,-34.612305 21.529907,-47.309204zm-78.536438,18.334839c9.92865,30.301758 10.86322,32.571777 18.606567,32.132202c-1.64447,-5.591309 -6.365417,-10.145142 -9.678284,-15.45813c-3.531128,-5.663696 -5.450562,-16.255127 -8.928284,-16.674072zm34.898926,1.104858c-11.30011,19.798462 -12.507019,26.928955 -10.603638,29.158569c3.480225,2.152222 2.72052,-3.465332 10.603638,-29.158569zm21.140747,4.245605c-2.781921,-0.759644 -4.808533,6.097778 -5.914307,11.706665c-2.823303,14.321167 -2.855286,12.254395 -0.952148,13.46814c2.62384,1.67334 2.607361,-12.939453 6.866455,-25.174805zm18.712036,-1.315063c-2.911804,0.139771 -4.426392,5.941162 -6.468201,11.296021c-2.050659,10.210938 -8.019348,16.553711 -3.809814,16.94165c4.185181,0.38562 7.080688,-16.118286 10.278015,-28.237671zm-31.208374,3.927856c-9.182617,16.418457 -11.146606,21.454346 -7.458313,22.132324c2.37793,0.437012 2.565613,-3.574951 5.280457,-10.320435c1.748657,-4.345093 3.928894,-8.152466 2.177856,-11.81189z"
         id="path7786"
         stroke-dashoffset="0"
         stroke-linejoin="round"
         stroke-linecap="round"
         stroke-width="3"
         fill="#1e9e00"
         opacity="0.698" />
      <g
         id="g7640">
        <path
           stroke-miterlimit="4"
           id="path4271"
           d="m292.143066,1520.285156a30.000006,16.285717 0 1 1 -59.999969,0a30.000006,16.285717 0 1 1 59.999969,0z"
           stroke-dashoffset="0"
           stroke-linejoin="round"
           stroke-linecap="round"
           stroke-width="3"
           fill="#ad7fa8" />
        <path
           stroke-miterlimit="4"
           d="m173.09346,1360.855957c-1.718872,1.157837 -5.959991,0.098755 -8.367065,0.481323c-2.486618,0.395142 -5.1707,3.605713 -7.69046,3.136353c-2.439163,-0.454468 -3.998764,-4.030396 -5.780106,-5.154053c-1.840271,-1.161011 -5.577148,-0.928223 -6.378555,-2.485229c-0.775772,-1.50708 2.537735,-3.949097 3.203445,-5.474731c0.687759,-1.575928 -1.082916,-4.22937 0.770737,-5.353638c1.794434,-1.088135 5.754715,0.424072 8.131042,0.003296c2.454956,-0.434814 5.074539,-3.048462 7.613693,-2.661621c2.457825,0.37439 4.078827,3.056152 5.880386,4.134644c1.861176,1.114014 6.874466,1.442627 7.726532,2.959839c0.824783,1.46875 -4.220291,3.188599 -4.728531,4.730713c-0.52507,1.59314 1.394516,4.487183 -0.381119,5.683105z"
           id="path5606"
           stroke-dashoffset="0"
           stroke-linejoin="round"
           stroke-linecap="round"
           stroke-width="3"
           fill="#ce5c00" />
        <path
           stroke-miterlimit="4"
           d="m124.278786,1397.413574c-2.155647,1.178589 -6.272171,1.393311 -9.333122,1.806519c-3.060852,0.413086 -7.542458,2.394775 -10.555916,1.910767c-3.013557,-0.484131 -5.758865,-2.868652 -7.953537,-4.004517c-2.194565,-1.135864 -6.177483,-2.290161 -7.106331,-3.845337c-0.928856,-1.555176 2.057236,-3.950317 2.785904,-5.485352c0.728668,-1.535034 -0.111168,-4.534668 2.136566,-5.641357c2.247833,-1.106689 7.788353,-0.42627 10.710388,-0.921143c2.922028,-0.494995 5.752716,-2.212402 8.791229,-1.810425c3.038414,0.401855 5.768921,2.818726 7.953438,4.004395c2.184608,1.185669 7.909767,1.769531 8.900261,3.285522c0.990494,1.515991 -2.092148,4.013184 -2.91011,5.526611c-0.817963,1.513428 -1.263115,3.995605 -3.41877,5.174316z"
           id="path5604"
           stroke-dashoffset="0"
           stroke-linejoin="round"
           stroke-linecap="round"
           stroke-width="3"
           fill="#f57900" />
        <path
           stroke-miterlimit="4"
           id="path5600"
           d="m208.325256,1368.587646c-1.712112,0.917603 -6.621155,-0.452271 -8.984833,0.037109c-2.363678,0.48938 -7.218307,3.115479 -9.808517,2.811523c-2.590286,-0.303955 -3.89682,-2.716309 -6.073929,-3.47644c-2.177109,-0.76001 -6.03891,-0.656494 -7.051437,-1.791504c-1.012436,-1.13501 1.336258,-3.791016 1.944809,-4.9729c0.608551,-1.181763 -1.158508,-3.34314 0.533539,-4.321655c1.692062,-0.978516 6.828918,-0.780518 9.348083,-1.105957c2.51915,-0.325317 5.351166,-1.883667 7.988037,-1.682129c2.636856,0.20166 5.213013,2.158325 7.403259,2.872681c2.190338,0.714355 6.378525,1.506592 7.542572,2.631592c1.164063,1.125 -1.746002,2.41687 -2.035309,3.642212c-0.289307,1.225464 0.905838,4.437866 -0.806274,5.355469z"
           stroke-dashoffset="0"
           stroke-linejoin="round"
           stroke-linecap="round"
           stroke-width="3"
           fill="#fcc916" />
        <path
           stroke-miterlimit="4"
           id="path5598"
           d="m159.667648,1381.261475c-1.922379,1.341309 -7.361496,-0.040283 -10.083359,0.635254c-2.721878,0.675659 -7.453979,3.921021 -10.393356,3.53833c-2.939484,-0.382568 -4.626953,-3.643921 -7.030945,-4.752319c-2.403976,-1.108398 -7.087784,-1.251465 -8.197121,-2.897949c-1.109337,-1.646484 1.762489,-4.970825 2.37616,-6.693726c0.61367,-1.7229 -1.268539,-4.788574 0.639618,-6.184448c1.908073,-1.395874 7.504753,-1.064209 10.337608,-1.591919c2.832855,-0.527588 6.149307,-2.818237 9.118927,-2.527466c2.969696,0.290649 5.547012,3.144165 7.961533,4.211914c2.414612,1.067749 7.325348,2.010986 8.54097,3.64978c1.215683,1.638916 -2.050323,3.741211 -2.439529,5.50293c-0.389221,1.761597 1.091858,5.768311 -0.830505,7.109619z"
           stroke-dashoffset="0"
           stroke-linejoin="round"
           stroke-linecap="round"
           stroke-width="3"
           fill="#ad7fa8" />
        <path
           stroke-miterlimit="4"
           id="path5594"
           d="m153.562714,1416.98584c-2.743927,1.703491 -9.514618,0.145264 -13.357193,0.70813c-3.969772,0.581421 -8.254562,5.305664 -12.277267,4.61499c-3.893806,-0.668701 -6.383682,-5.93042 -9.227448,-7.583984c-2.937851,-1.708252 -8.903435,-1.365723 -10.182808,-3.656738c-1.238457,-2.217651 4.051254,-5.810913 5.114021,-8.055664c1.098053,-2.319092 -1.728798,-6.223389 1.230537,-7.877563c2.864525,-1.601318 9.186768,0.623901 12.980377,0.004639c3.919136,-0.639648 8.101082,-4.485474 12.154625,-3.91626c3.923691,0.550903 6.511475,4.496948 9.387527,6.08374c2.971207,1.639282 10.974609,2.122803 12.334869,4.355347c1.316574,2.161133 -6.737457,4.691772 -7.548813,6.960938c-0.838242,2.344238 2.226334,6.602539 -0.608429,8.362427z"
           stroke-dashoffset="0"
           stroke-linejoin="round"
           stroke-linecap="round"
           stroke-width="3"
           fill="#ce5c00" />
        <path
           stroke-miterlimit="4"
           d="m185.448059,1405.547119c-2.269485,1.341309 -8.691147,-0.040283 -11.904648,0.635254c-3.213501,0.675659 -8.800232,3.921021 -12.270645,3.53833c-3.470413,-0.382568 -5.46257,-3.643921 -8.300888,-4.752319c-2.838196,-1.108398 -8.368011,-1.251465 -9.677719,-2.897949c-1.309601,-1.646484 2.080826,-4.970825 2.805344,-6.693726c0.724625,-1.7229 -1.49765,-4.788574 0.755157,-6.184448c2.252808,-1.395874 8.860291,-1.064209 12.204926,-1.591919c3.344543,-0.527588 7.259903,-2.818237 10.766006,-2.527466c3.506012,0.290649 6.548843,3.144165 9.399597,4.211914c2.850632,1.067749 8.648468,2.010986 10.083649,3.64978c1.435181,1.638916 -2.420639,3.741211 -2.880264,5.50293c-0.459518,1.761597 1.289078,5.768311 -0.980515,7.109619z"
           id="path5592"
           stroke-dashoffset="0"
           stroke-linejoin="round"
           stroke-linecap="round"
           stroke-width="3"
           fill="#3465a4" />
        <path
           stroke-miterlimit="4"
           d="m208.63942,1451.817871c-2.717255,1.482788 -10.508392,-0.730957 -14.259598,0.059814c-3.751328,0.790771 -11.456116,5.03479 -15.566971,4.543579c-4.110855,-0.491211 -6.184555,-4.389771 -9.639786,-5.618042c-3.455124,-1.228149 -9.584076,-1.060791 -11.191025,-2.895142c-1.606949,-1.834229 2.120728,-6.126343 3.086548,-8.036255c0.965805,-1.90979 -1.83876,-5.402466 0.846771,-6.983765c2.68541,-1.581299 10.837891,-1.261353 14.835968,-1.787231c3.998093,-0.525879 8.492706,-3.044067 12.677612,-2.718384c4.184906,0.325806 8.273453,3.487793 11.74968,4.642212c3.476105,1.154297 10.123169,2.434814 11.970612,4.252686c1.847443,1.817993 -2.771164,3.90564 -3.230301,5.885986c-0.459152,1.980347 1.437744,7.171631 -1.27951,8.654541z"
           id="path5590"
           stroke-dashoffset="0"
           stroke-linejoin="round"
           stroke-linecap="round"
           stroke-width="3"
           fill="#fcaf3e" />
        <path
           stroke-miterlimit="4"
           d="m257.012268,1475.037476c-3.256638,2.093384 -11.291946,0.178589 -15.852448,0.870239c-4.711182,0.714478 -9.796509,6.519897 -14.570496,5.671143c-4.621323,-0.821655 -7.576157,-7.28772 -10.951126,-9.31958c-3.486649,-2.099121 -10.566589,-1.678223 -12.084946,-4.49353c-1.469803,-2.72522 4.808029,-7.140869 6.069321,-9.899414c1.303009,-2.849731 -2.051743,-7.647583 1.460251,-9.680298c3.39975,-1.967773 10.902985,0.766724 15.405228,0.005737c4.65123,-0.786011 9.614349,-5.511963 14.425095,-4.8125c4.656631,0.677002 7.727829,5.526123 11.141113,7.476074c3.52623,2.014282 13.024506,2.608521 14.638855,5.352051c1.562653,2.65564 -7.99585,5.765503 -8.958771,8.553955c-0.994812,2.880737 2.642059,8.113525 -0.722076,10.276123z"
           id="path5586"
           stroke-dashoffset="0"
           stroke-linejoin="round"
           stroke-linecap="round"
           stroke-width="3"
           fill="#cc0000" />
        <path
           stroke-miterlimit="4"
           id="path5582"
           d="m210.676544,1511.706177c-3.167831,1.746582 -12.250778,-0.86084 -16.624161,0.070557c-4.373367,0.931396 -13.355774,5.93042 -18.1483,5.351807c-4.792526,-0.578613 -7.210083,-5.170654 -11.238129,-6.61731c-4.028198,-1.446777 -11.173386,-1.249634 -13.046814,-3.410278c-1.873276,-2.160522 2.472397,-7.216187 3.598358,-9.46582c1.1259,-2.249634 -2.143524,-6.363525 0.987198,-8.226196c3.13063,-1.862549 12.634964,-1.485718 17.296173,-2.105103c4.661041,-0.619385 9.90097,-3.585571 14.779831,-3.201904c4.878708,0.383667 9.645355,4.108276 13.697876,5.468018c4.052658,1.359619 11.801819,2.867798 13.955612,5.009277c2.153778,2.141357 -3.230682,4.600342 -3.765976,6.932861c-0.535278,2.332642 1.676163,8.44751 -1.491669,10.194092z"
           stroke-dashoffset="0"
           stroke-linejoin="round"
           stroke-linecap="round"
           stroke-width="3"
           fill="#fcaf3e" />
        <path
           stroke-miterlimit="4"
           id="path5576"
           d="m290.532318,1529.559326c-2.999664,1.884277 -11.486877,-0.056641 -15.7341,0.892456c-4.247192,0.948975 -11.631165,5.508057 -16.217804,4.970581c-4.586761,-0.537476 -7.219879,-5.119019 -10.971069,-6.676025c-3.75119,-1.557129 -11.059799,-1.758057 -12.790817,-4.071045c-1.731003,-2.312866 2.750198,-6.983032 3.707764,-9.403198c0.957581,-2.420288 -1.979416,-6.726929 0.998062,-8.687744c2.977356,-1.960938 11.710434,-1.495117 16.130829,-2.236328c4.42038,-0.741211 9.595367,-3.959106 14.229156,-3.550659c4.633942,0.408325 8.655579,4.41687 12.423218,5.91687c3.767761,1.5 11.430481,2.824951 13.327332,5.127197c1.896973,2.302246 -3.19931,5.255615 -3.806641,7.730347c-0.607361,2.474731 1.703735,8.103271 -1.295929,9.987549z"
           stroke-dashoffset="0"
           stroke-linejoin="round"
           stroke-linecap="round"
           stroke-width="3"
           fill="#ad7fa8" />
        <path
           stroke-miterlimit="4"
           d="m252.549088,1535.275146c-3.671402,2.065186 -10.682373,2.441284 -15.89563,3.165161c-5.213181,0.723999 -12.845947,4.196045 -17.978409,3.3479c-5.132462,-0.848145 -9.808212,-5.026123 -13.54599,-7.016235c-3.737762,-1.990112 -10.521255,-4.012329 -12.103241,-6.737183c-1.58197,-2.724854 3.503784,-6.921387 4.744904,-9.61084c1.241028,-2.689453 -0.189346,-7.94519 3.638885,-9.884155c3.8284,-1.938965 13.264755,-0.746826 18.241409,-1.614014c4.976578,-0.867065 9.79776,-3.876221 14.972717,-3.171997c5.174957,0.704224 9.825348,4.938843 13.54599,7.016235c3.720642,2.077393 13.471542,3.100342 15.158493,5.75647c1.686859,2.656128 -3.563354,7.031372 -4.956451,9.683105c-1.393097,2.651611 -2.151184,7.000488 -5.822678,9.065552z"
           id="path5574"
           stroke-dashoffset="0"
           stroke-linejoin="round"
           stroke-linecap="round"
           stroke-width="3"
           fill="#f57900" />
        <path
           stroke-miterlimit="4"
           d="m233.926498,1421.935791c-2.682587,1.44519 -10.374359,-0.71228 -14.077713,0.058472c-3.703476,0.77063 -11.309982,4.906738 -15.368408,4.427979c-4.058411,-0.47876 -6.105652,-4.278198 -9.516815,-5.47522c-3.411057,-1.197021 -9.461823,-1.033936 -11.048279,-2.821533c-1.586456,-1.787598 2.093674,-5.970703 3.047165,-7.832031c0.953506,-1.861328 -1.815292,-5.265137 0.835983,-6.806274c2.651154,-1.541138 10.699646,-1.22937 14.646729,-1.741821c3.947098,-0.512573 8.384384,-2.966797 12.5159,-2.649292c4.131531,0.317505 8.167923,3.39917 11.599808,4.52417c3.431763,1.125 9.994049,2.372925 11.817917,4.144653c1.823883,1.771851 -2.735809,3.806396 -3.189102,5.73645c-0.453293,1.929932 1.419403,6.98938 -1.263184,8.434448z"
           id="path5578"
           stroke-dashoffset="0"
           stroke-linejoin="round"
           stroke-linecap="round"
           stroke-width="3"
           fill="#fcc916" />
        <path
           stroke-miterlimit="4"
           id="path5580"
           d="m99.510353,1356.447021c-2.194748,1.196777 -7.610352,0.102173 -10.683868,0.497559c-3.175262,0.408447 -6.602493,3.727173 -9.820084,3.241943c-3.114502,-0.469727 -5.106049,-4.166138 -7.380661,-5.327637c-2.349869,-1.200073 -7.12149,-0.959473 -8.144814,-2.568848c-0.990589,-1.557983 3.24044,-4.082153 4.0905,-5.659058c0.878288,-1.62915 -1.38279,-4.371948 0.984253,-5.533936c2.291222,-1.124878 7.348122,0.438354 10.382477,0.003296c3.13475,-0.449341 6.479721,-3.151001 9.721985,-2.751221c3.138397,0.387085 5.208267,3.15918 7.508705,4.273804c2.376549,1.151611 8.778137,1.491211 9.866158,3.05957c1.053078,1.518188 -5.389023,3.295898 -6.037994,4.890015c-0.670471,1.646851 1.780762,4.638306 -0.486656,5.874512z"
           stroke-dashoffset="0"
           stroke-linejoin="round"
           stroke-linecap="round"
           stroke-width="3"
           fill="#ce5c00" />
        <path
           stroke-miterlimit="4"
           d="m292.886627,1492.329956c-3.439545,1.820435 -11.926636,0.155273 -16.743347,0.756836c-4.976166,0.621338 -10.34726,5.669922 -15.389679,4.931763c-4.881027,-0.714478 -8.002029,-6.337646 -11.566727,-8.104614c-3.682632,-1.825562 -11.160568,-1.459473 -12.764282,-3.907837c-1.552414,-2.369995 5.078308,-6.209839 6.410492,-8.608765c1.376343,-2.478271 -2.167068,-6.650635 1.542419,-8.418457c3.59079,-1.711182 11.515793,0.66687 16.271133,0.005127c4.912689,-0.683716 10.154785,-4.793457 15.235962,-4.185303c4.918396,0.588745 8.162231,4.805786 11.767395,6.501465c3.724365,1.751831 13.756561,2.268555 15.46167,4.654419c1.650513,2.309448 -8.445343,5.013794 -9.462372,7.438843c-1.050751,2.505249 2.790741,7.055908 -0.762665,8.936523z"
           id="path5584"
           stroke-dashoffset="0"
           stroke-linejoin="round"
           stroke-linecap="round"
           stroke-width="3"
           fill="#ce5c00" />
        <path
           stroke-miterlimit="4"
           id="path5588"
           d="m191.160736,1479.005371c-2.634201,1.742554 -9.133759,0.148682 -12.822647,0.724365c-3.810745,0.594849 -7.924149,5.427124 -11.785828,4.720581c-3.737946,-0.68396 -6.128159,-6.066162 -8.858093,-7.757446c-2.820251,-1.747314 -8.546936,-1.396973 -9.775101,-3.740479c-1.188873,-2.268433 3.888992,-5.94397 4.909332,-8.240112c1.05397,-2.37207 -1.659607,-6.365723 1.181152,-8.057861c2.749878,-1.637817 8.819046,0.638306 12.460922,0.004883c3.762146,-0.654297 7.77681,-4.588135 11.668091,-4.005981c3.766632,0.563599 6.250732,4.599976 9.011658,6.223022c2.852402,1.676758 10.535309,2.171387 11.841125,4.455078c1.263992,2.210449 -6.467651,4.799072 -7.246643,7.120239c-0.804581,2.397827 2.137222,6.753662 -0.583969,8.553711z"
           stroke-dashoffset="0"
           stroke-linejoin="round"
           stroke-linecap="round"
           stroke-width="3"
           fill="#f57900" />
        <path
           stroke-miterlimit="4"
           d="m132.921249,1445.045532c-2.478195,1.729126 -9.490044,-0.05188 -12.998894,0.81897c-3.50885,0.87085 -9.609039,5.054688 -13.398407,4.561401c-3.789368,-0.493164 -5.964622,-4.69751 -9.063683,-6.126465c-3.099167,-1.428833 -9.137207,-1.613281 -10.567177,-3.73584c-1.430077,-2.122437 2.271965,-6.408081 3.063179,-8.629028c0.791107,-2.221069 -1.635414,-6.173096 0.824448,-7.972534c2.459854,-1.799438 9.674728,-1.371948 13.326645,-2.052124c3.651924,-0.680298 7.927261,-3.633179 11.755486,-3.258423c3.828232,0.374756 7.150734,4.053345 10.263474,5.42981c3.112633,1.376465 9.443336,2.592285 11.010414,4.705078c1.567093,2.112671 -2.643112,4.822876 -3.144867,7.093994c-0.501862,2.270874 1.407562,7.436035 -1.070618,9.165161z"
           id="path5596"
           stroke-dashoffset="0"
           stroke-linejoin="round"
           stroke-linecap="round"
           stroke-width="3"
           fill="#ad7fa8" />
        <path
           stroke-miterlimit="4"
           id="path5602"
           d="m144.993088,1355.984985c-2.155655,1.178589 -6.272186,1.393311 -9.33313,1.806519c-3.060852,0.413086 -7.54245,2.394775 -10.555916,1.910767c-3.013557,-0.484131 -5.758865,-2.868652 -7.953537,-4.004517c-2.194565,-1.135864 -6.177483,-2.290161 -7.106331,-3.845337c-0.928856,-1.555176 2.057236,-3.950317 2.785904,-5.485352c0.728668,-1.535034 -0.111168,-4.534668 2.136566,-5.641357c2.247833,-1.106689 7.788353,-0.42627 10.710388,-0.921143c2.922028,-0.494995 5.752716,-2.212402 8.791229,-1.810425c3.038422,0.401855 5.768921,2.818726 7.95343,4.004395c2.184616,1.185669 7.909775,1.769531 8.900269,3.285522c0.990494,1.515991 -2.092148,4.013184 -2.91011,5.526611c-0.817963,1.513428 -1.263123,3.995605 -3.418762,5.174316z"
           stroke-dashoffset="0"
           stroke-linejoin="round"
           stroke-linecap="round"
           stroke-width="3"
           fill="#f57900" />
        <path
           stroke-miterlimit="4"
           id="path7636"
           d="m230.180176,1392.71936c-1.981995,1.322998 -7.664886,-0.6521 -10.401154,0.053467c-2.736282,0.705566 -8.356171,4.491943 -11.354691,4.053711c-2.998611,-0.438354 -4.511108,-3.916504 -7.031403,-5.012329c-2.520309,-1.095825 -6.99086,-0.946533 -8.162994,-2.583008c-1.172043,-1.636475 1.546906,-5.46582 2.251373,-7.1698c0.704483,-1.703857 -1.341125,-4.819946 0.617661,-6.230835c1.958771,-1.410767 7.905396,-1.125366 10.821655,-1.594482c2.916275,-0.469238 6.194717,-2.715942 9.247238,-2.425293c3.052536,0.290649 6.034775,3.111694 8.570297,4.141724c2.535614,1.029907 7.384003,2.172241 8.731552,3.794189c1.347549,1.621948 -2.02124,3.484497 -2.356155,5.251343c-0.3349,1.766724 1.04863,6.398438 -0.93338,7.721313z"
           stroke-dashoffset="0"
           stroke-linejoin="round"
           stroke-linecap="round"
           stroke-width="3"
           fill="#fcaf3e" />
      </g>
      <path
         stroke-miterlimit="4"
         d="m 1015.9345,1379.427 a 254.28571,77.14286 0 1 1 -508.57139,0 254.28571,77.14286 0 1 1 508.57139,0 z"
         id="path4397"
         inkscape:connector-curvature="0"
         style="opacity:0.36444499;fill:#323232;stroke-width:3;stroke-linecap:round;stroke-linejoin:round;stroke-miterlimit:4;stroke-dashoffset:0;filter:url(#filter4635)"
         transform="matrix(3.0029479,0,0,3.0029479,-1213.2219,-2854.5906)" />
      <path
         stroke-miterlimit="4"
         clip-path="url(#clipPath5671)"
         d="m256.681458,128.708237a166.687256,156.481918 0 1 1 -333.374519,0a166.687256,156.481918 0 1 1 333.374519,0z"
         id="path4639"
         stroke-dashoffset="0"
         stroke-linejoin="round"
         stroke-linecap="round"
         stroke-width="8.398963"
         stroke="#fcaf3e"
         fill="url(#radialGradient4647)" />
      <g
         display="inline"
         id="g5828"
         transform="matrix(-0.210623 0 0 0.556237 -341.333 359.596)"
         fill="#009800"
         opacity="0.697778">
        <path
           stroke-miterlimit="4"
           id="path5830"
           d="m-3418.017578,2091.647461c-12.955811,-57.300293 -65.418457,-104.14917 -110.755127,-139.778076c58.284424,5.963745 98.620361,69.925293 124.037842,117.933594c2.572754,8.976318 -2.445068,22.197754 -13.282715,21.844482z"
           stroke-dashoffset="0"
           stroke-linejoin="round"
           stroke-linecap="round"
           stroke-width="5"
           fill="#009800" />
        <path
           stroke-miterlimit="4"
           id="path5832"
           d="m-3343.437012,2082.970703c16.922363,-30.073486 -35.47998,-114.769287 -26.255859,-150.659668c29.290039,54.484131 47.240967,92.356079 42.014648,140.913086c-3.416748,5.674561 -10.498779,6.567627 -15.758789,9.746582z"
           stroke-dashoffset="0"
           stroke-linejoin="round"
           stroke-linecap="round"
           stroke-width="5"
           fill="#009800" />
        <path
           stroke-miterlimit="4"
           id="path5834"
           d="m-3268.924805,2080.605957c25.249268,-47.250732 55.258545,-94.921265 108.53833,-113.318359c-29.527588,20.459229 -63.095703,41.023926 -76.157715,76.460205c-6.845215,14.830078 -14.696045,32.876465 -32.380615,36.858154z"
           stroke-dashoffset="0"
           stroke-linejoin="round"
           stroke-linecap="round"
           stroke-width="5"
           fill="#009800" />
        <path
           stroke-miterlimit="4"
           id="path5836"
           d="m-3160.151855,2089.564209c20.26416,-9.159912 40.634033,-61.067383 69.030518,-84.929077c-31.307129,78.41394 -42.603516,86.367798 -69.030518,84.929077z"
           stroke-dashoffset="0"
           stroke-linejoin="round"
           stroke-linecap="round"
           stroke-width="5"
           fill="#009800" />
        <path
           stroke-miterlimit="4"
           id="path5838"
           d="m-3303.210449,2072.034668c12.679932,-15.090576 17.682129,-39.510498 39.270264,-44.824463c-11.711182,15.824341 -17.50708,39.779785 -39.270264,44.824463z"
           stroke-dashoffset="0"
           stroke-linejoin="round"
           stroke-linecap="round"
           stroke-width="5"
           fill="#009800" />
        <path
           stroke-miterlimit="4"
           id="path5840"
           d="m-3382.007568,2046.72998c-10.250244,-21.322998 -21.087646,-42.660889 -36.165527,-61.046875c42.01709,18.971558 55.649658,50.30188 36.165527,61.046875z"
           stroke-dashoffset="0"
           stroke-linejoin="round"
           stroke-linecap="round"
           stroke-width="5"
           fill="#009800" />
        <path
           stroke-miterlimit="4"
           id="path5842"
           d="m-3188.619385,2043.35498c18.253662,-21.315552 39.844482,-40.695557 65.959961,-51.724487c-22.991943,11.943115 -42.077393,44.868164 -65.959961,51.724487z"
           stroke-dashoffset="0"
           stroke-linejoin="round"
           stroke-linecap="round"
           stroke-width="5"
           fill="#009800" />
      </g>
      <g
         display="inline"
         transform="matrix(-0.284483 0 0 0.391411 808.187 580.556)"
         id="g5844"
         fill="#008c00"
         opacity="0.697778">
        <path
           stroke-miterlimit="4"
           d="m-2516.395264,2243.954346c-12.955811,-57.300293 -65.418457,-104.14917 -110.755127,-139.778076c58.284424,5.963623 98.620361,69.925293 124.037842,117.933594c2.572754,8.976318 -2.445068,22.197754 -13.282715,21.844482z"
           id="path5846"
           stroke-dashoffset="0"
           stroke-linejoin="round"
           stroke-linecap="round"
           stroke-width="5"
           fill="#008c00" />
        <path
           stroke-miterlimit="4"
           d="m-2441.814697,2235.277588c16.922363,-30.073486 -35.47998,-114.769287 -26.255859,-150.659668c29.290039,54.484131 47.240967,92.355957 42.014648,140.913086c-3.416748,5.674561 -10.498779,6.567627 -15.758789,9.746582z"
           id="path5848"
           stroke-dashoffset="0"
           stroke-linejoin="round"
           stroke-linecap="round"
           stroke-width="5"
           fill="#008c00" />
        <path
           stroke-miterlimit="4"
           d="m-2367.30249,2232.912842c25.249268,-47.250732 55.258545,-94.921387 108.53833,-113.318359c-29.527588,20.459229 -63.095703,41.023926 -76.157715,76.460205c-6.845215,14.830078 -14.696045,32.876465 -32.380615,36.858154z"
           id="path5850"
           stroke-dashoffset="0"
           stroke-linejoin="round"
           stroke-linecap="round"
           stroke-width="5"
           fill="#008c00" />
        <path
           stroke-miterlimit="4"
           d="m-2258.529541,2241.871094c20.26416,-9.159912 40.634033,-61.067383 69.030518,-84.929199c-31.307129,78.414063 -42.603516,86.36792 -69.030518,84.929199z"
           id="path5852"
           stroke-dashoffset="0"
           stroke-linejoin="round"
           stroke-linecap="round"
           stroke-width="5"
           fill="#008c00" />
        <path
           stroke-miterlimit="4"
           d="m-2401.588135,2224.341553c12.679932,-15.090576 17.682129,-39.510498 39.270264,-44.824463c-11.710938,15.824219 -17.50708,39.779785 -39.270264,44.824463z"
           id="path5854"
           stroke-dashoffset="0"
           stroke-linejoin="round"
           stroke-linecap="round"
           stroke-width="5"
           fill="#008c00" />
        <path
           stroke-miterlimit="4"
           d="m-2480.385254,2199.036865c-10.250244,-21.322998 -21.087646,-42.660889 -36.165527,-61.046875c42.01709,18.971436 55.649414,50.301758 36.165527,61.046875z"
           id="path5856"
           stroke-dashoffset="0"
           stroke-linejoin="round"
           stroke-linecap="round"
           stroke-width="5"
           fill="#008c00" />
        <path
           stroke-miterlimit="4"
           d="m-2286.99707,2195.661865c18.253662,-21.315674 39.844482,-40.695557 65.959961,-51.724609c-22.991943,11.943115 -42.077393,44.868164 -65.959961,51.724609z"
           id="path5858"
           stroke-dashoffset="0"
           stroke-linejoin="round"
           stroke-linecap="round"
           stroke-width="5"
           fill="#008c00" />
      </g>
      <g
         display="inline"
         id="g5860"
         transform="matrix(0.326029 0 0 0.480164 1333.72 586.943)"
         fill="#008c00"
         opacity="0.697778">
        <path
           stroke-miterlimit="4"
           id="path5862"
           d="m2298.196533,2148.949707c-12.955811,-57.300293 -65.418457,-104.149292 -110.755127,-139.778198c58.284424,5.963745 98.620361,69.925415 124.037842,117.933716c2.572754,8.976318 -2.445068,22.197754 -13.282715,21.844482z"
           stroke-dashoffset="0"
           stroke-linejoin="round"
           stroke-linecap="round"
           stroke-width="5"
           fill="#008c00" />
        <path
           stroke-miterlimit="4"
           id="path5864"
           d="m2372.7771,2140.272949c16.922363,-30.073486 -35.47998,-114.769409 -26.255859,-150.65979c29.289795,54.484131 47.240967,92.356079 42.014648,140.913208c-3.416748,5.674561 -10.498779,6.567627 -15.758789,9.746582z"
           stroke-dashoffset="0"
           stroke-linejoin="round"
           stroke-linecap="round"
           stroke-width="5"
           fill="#008c00" />
        <path
           stroke-miterlimit="4"
           id="path5866"
           d="m2447.289307,2137.908203c25.249268,-47.250732 55.258545,-94.921387 108.53833,-113.318481c-29.527588,20.459229 -63.095703,41.024048 -76.157715,76.460327c-6.845215,14.830078 -14.696045,32.876465 -32.380615,36.858154z"
           stroke-dashoffset="0"
           stroke-linejoin="round"
           stroke-linecap="round"
           stroke-width="5"
           fill="#008c00" />
        <path
           stroke-miterlimit="4"
           id="path5868"
           d="m2556.062256,2146.866455c20.26416,-9.159912 40.634033,-61.067383 69.030518,-84.929199c-31.307129,78.414063 -42.603516,86.36792 -69.030518,84.929199z"
           stroke-dashoffset="0"
           stroke-linejoin="round"
           stroke-linecap="round"
           stroke-width="5"
           fill="#008c00" />
        <path
           stroke-miterlimit="4"
           id="path5870"
           d="m2413.003662,2129.336914c12.679932,-15.090576 17.682129,-39.510498 39.270264,-44.824463c-11.710938,15.824219 -17.50708,39.779785 -39.270264,44.824463z"
           stroke-dashoffset="0"
           stroke-linejoin="round"
           stroke-linecap="round"
           stroke-width="5"
           fill="#008c00" />
        <path
           stroke-miterlimit="4"
           id="path5872"
           d="m2334.206543,2104.032227c-10.250244,-21.322998 -21.087646,-42.660889 -36.165527,-61.046997c42.01709,18.971558 55.649658,50.30188 36.165527,61.046997z"
           stroke-dashoffset="0"
           stroke-linejoin="round"
           stroke-linecap="round"
           stroke-width="5"
           fill="#008c00" />
        <path
           stroke-miterlimit="4"
           id="path5874"
           d="m2527.594971,2100.657227c18.253418,-21.315674 39.844238,-40.695557 65.959717,-51.724609c-22.991943,11.943115 -42.077393,44.868164 -65.959717,51.724609z"
           stroke-dashoffset="0"
           stroke-linejoin="round"
           stroke-linecap="round"
           stroke-width="5"
           fill="#008c00" />
      </g>
      <g
         display="inline"
         id="g5876"
         transform="matrix(-0.192158 0 0 0.213906 1121.46 743.183)"
         fill="#008c00"
         opacity="0.697778">
        <path
           stroke-miterlimit="4"
           id="path5878"
           d="m-3751.7229,2670.476563c-12.955811,-57.300293 -65.418457,-104.14917 -110.755127,-139.778076c58.284424,5.963623 98.620361,69.925293 124.037842,117.933594c2.572754,8.976318 -2.445068,22.197754 -13.282715,21.844482z"
           stroke-dashoffset="0"
           stroke-linejoin="round"
           stroke-linecap="round"
           stroke-width="5"
           fill="#008c00" />
        <path
           stroke-miterlimit="4"
           id="path5880"
           d="m-3677.142334,2661.799805c16.922363,-30.073486 -35.47998,-114.769287 -26.255859,-150.659668c29.289795,54.484131 47.240967,92.355957 42.014648,140.913086c-3.416748,5.674561 -10.498779,6.567627 -15.758789,9.746582z"
           stroke-dashoffset="0"
           stroke-linejoin="round"
           stroke-linecap="round"
           stroke-width="5"
           fill="#008c00" />
        <path
           stroke-miterlimit="4"
           id="path5882"
           d="m-3602.630127,2659.435059c25.249268,-47.250732 55.258545,-94.921387 108.53833,-113.318359c-29.527588,20.459229 -63.095703,41.023926 -76.157715,76.460205c-6.845215,14.830078 -14.696045,32.876465 -32.380615,36.858154z"
           stroke-dashoffset="0"
           stroke-linejoin="round"
           stroke-linecap="round"
           stroke-width="5"
           fill="#008c00" />
        <path
           stroke-miterlimit="4"
           id="path5884"
           d="m-3493.857178,2668.393311c20.26416,-9.159912 40.634033,-61.067383 69.030518,-84.929199c-31.307129,78.414063 -42.603516,86.36792 -69.030518,84.929199z"
           stroke-dashoffset="0"
           stroke-linejoin="round"
           stroke-linecap="round"
           stroke-width="5"
           fill="#008c00" />
        <path
           stroke-miterlimit="4"
           id="path5886"
           d="m-3636.915771,2650.86377c12.679932,-15.090576 17.682129,-39.510498 39.270264,-44.824463c-11.711182,15.824219 -17.50708,39.779785 -39.270264,44.824463z"
           stroke-dashoffset="0"
           stroke-linejoin="round"
           stroke-linecap="round"
           stroke-width="5"
           fill="#008c00" />
        <path
           stroke-miterlimit="4"
           id="path5888"
           d="m-3715.712891,2625.559082c-10.250244,-21.322998 -21.087646,-42.660889 -36.165527,-61.046875c42.01709,18.971436 55.649414,50.301758 36.165527,61.046875z"
           stroke-dashoffset="0"
           stroke-linejoin="round"
           stroke-linecap="round"
           stroke-width="5"
           fill="#008c00" />
        <path
           stroke-miterlimit="4"
           id="path5890"
           d="m-3522.324707,2622.184082c18.253662,-21.315674 39.844482,-40.695557 65.959961,-51.724609c-22.991943,11.943115 -42.077393,44.868164 -65.959961,51.724609z"
           stroke-dashoffset="0"
           stroke-linejoin="round"
           stroke-linecap="round"
           stroke-width="5"
           fill="#008c00" />
      </g>
      <g
         display="inline"
         transform="matrix(0.169077 0 0 0.16319 1217.85 559.511)"
         id="g5892"
         fill="#008c00"
         opacity="0.697778">
        <path
           stroke-miterlimit="4"
           d="m4380.793945,2962.766113c-12.956055,-57.300293 -65.418457,-104.149414 -110.755371,-139.778076c58.284668,5.963623 98.620605,69.925049 124.038086,117.933594c2.572754,8.976318 -2.445313,22.197754 -13.282715,21.844482z"
           id="path5894"
           stroke-dashoffset="0"
           stroke-linejoin="round"
           stroke-linecap="round"
           stroke-width="5"
           fill="#008c00" />
        <path
           stroke-miterlimit="4"
           d="m4455.374512,2954.089355c16.922363,-30.073486 -35.47998,-114.769531 -26.255859,-150.659668c29.290039,54.483887 47.241211,92.355957 42.014648,140.913086c-3.416992,5.674561 -10.499023,6.567383 -15.758789,9.746582z"
           id="path5896"
           stroke-dashoffset="0"
           stroke-linejoin="round"
           stroke-linecap="round"
           stroke-width="5"
           fill="#008c00" />
        <path
           stroke-miterlimit="4"
           d="m4529.886719,2951.724609c25.249512,-47.250977 55.258789,-94.921387 108.538574,-113.318359c-29.527832,20.459229 -63.095703,41.023926 -76.158203,76.459961c-6.844727,14.830322 -14.695801,32.876465 -32.380371,36.858398z"
           id="path5898"
           stroke-dashoffset="0"
           stroke-linejoin="round"
           stroke-linecap="round"
           stroke-width="5"
           fill="#008c00" />
        <path
           stroke-miterlimit="4"
           d="m4638.659668,2960.682617c20.26416,-9.159668 40.633789,-61.067139 69.030762,-84.928955c-31.307617,78.414063 -42.604004,86.36792 -69.030762,84.928955z"
           id="path5900"
           stroke-dashoffset="0"
           stroke-linejoin="round"
           stroke-linecap="round"
           stroke-width="5"
           fill="#008c00" />
        <path
           stroke-miterlimit="4"
           d="m4495.601074,2943.15332c12.680176,-15.090576 17.682129,-39.510498 39.27002,-44.824463c-11.710938,15.824219 -17.506836,39.779541 -39.27002,44.824463z"
           id="path5902"
           stroke-dashoffset="0"
           stroke-linejoin="round"
           stroke-linecap="round"
           stroke-width="5"
           fill="#008c00" />
        <path
           stroke-miterlimit="4"
           d="m4416.803711,2917.848633c-10.25,-21.322998 -21.087402,-42.661133 -36.165039,-61.046875c42.01709,18.971436 55.649414,50.301758 36.165039,61.046875z"
           id="path5904"
           stroke-dashoffset="0"
           stroke-linejoin="round"
           stroke-linecap="round"
           stroke-width="5"
           fill="#008c00" />
        <path
           stroke-miterlimit="4"
           d="m4610.192383,2914.473389c18.253418,-21.31543 39.844238,-40.695557 65.959961,-51.724365c-22.992188,11.943115 -42.077637,44.868164 -65.959961,51.724365z"
           id="path5906"
           stroke-dashoffset="0"
           stroke-linejoin="round"
           stroke-linecap="round"
           stroke-width="5"
           fill="#008c00" />
      </g>
      <g
         display="inline"
         transform="matrix(0.38604 0 0 0.492843 -213.2 373.302)"
         id="g5811"
         fill="#009800">
        <path
           stroke-miterlimit="4"
           d="m1949.44043,2138.170898c-12.955933,-57.300293 -65.418335,-104.149292 -110.755249,-139.778198c58.284668,5.963745 98.620483,69.925171 124.038086,117.933716c2.572632,8.976318 -2.44519,22.19751 -13.282837,21.844482z"
           id="path5727"
           stroke-dashoffset="0"
           stroke-linejoin="round"
           stroke-linecap="round"
           stroke-width="5"
           fill="#009800" />
        <path
           stroke-miterlimit="4"
           d="m2024.021118,2129.494141c16.922241,-30.073486 -35.47998,-114.769409 -26.255859,-150.65979c29.289795,54.484131 47.240967,92.356079 42.014404,140.913208c-3.416626,5.674561 -10.498779,6.567383 -15.758545,9.746582z"
           id="path5729"
           stroke-dashoffset="0"
           stroke-linejoin="round"
           stroke-linecap="round"
           stroke-width="5"
           fill="#009800" />
        <path
           stroke-miterlimit="4"
           d="m2098.533203,2127.129395c25.249268,-47.250732 55.258545,-94.921387 108.53833,-113.318481c-29.527588,20.459229 -63.095703,41.024048 -76.157715,76.460083c-6.845215,14.830322 -14.696045,32.876465 -32.380615,36.858398z"
           id="path5731"
           stroke-dashoffset="0"
           stroke-linejoin="round"
           stroke-linecap="round"
           stroke-width="5"
           fill="#009800" />
        <path
           stroke-miterlimit="4"
           d="m2207.306152,2136.087646c20.26416,-9.159912 40.634033,-61.067383 69.030518,-84.929199c-31.307129,78.413818 -42.603516,86.367676 -69.030518,84.929199z"
           id="path5733"
           stroke-dashoffset="0"
           stroke-linejoin="round"
           stroke-linecap="round"
           stroke-width="5"
           fill="#009800" />
        <path
           stroke-miterlimit="4"
           d="m2064.247559,2118.558105c12.679932,-15.090576 17.682129,-39.510742 39.270264,-44.824463c-11.710938,15.824219 -17.50708,39.779541 -39.270264,44.824463z"
           id="path5735"
           stroke-dashoffset="0"
           stroke-linejoin="round"
           stroke-linecap="round"
           stroke-width="5"
           fill="#009800" />
        <path
           stroke-miterlimit="4"
           d="m1985.450317,2093.253418c-10.25,-21.323242 -21.087524,-42.661133 -36.165405,-61.046997c42.01709,18.971558 55.649536,50.30188 36.165405,61.046997z"
           id="path5737"
           stroke-dashoffset="0"
           stroke-linejoin="round"
           stroke-linecap="round"
           stroke-width="5"
           fill="#009800" />
        <path
           stroke-miterlimit="4"
           d="m2178.838867,2089.878418c18.253418,-21.315674 39.844238,-40.695801 65.959717,-51.724609c-22.991943,11.943115 -42.077393,44.868164 -65.959717,51.724609z"
           id="path5753"
           stroke-dashoffset="0"
           stroke-linejoin="round"
           stroke-linecap="round"
           stroke-width="5"
           fill="#009800" />
      </g>
      <g
         transform="matrix(0.137234 0.0203209 -0.00457729 0.0689332 874.477 574.517)"
         id="g7741">
        <path
           stroke-miterlimit="4"
           id="path7685"
           d="m6555.752441,3997.095703c-8.371094,4.675049 -29.025879,0.398926 -40.749512,1.943359c-12.109863,1.595703 -25.182129,14.561279 -37.454102,12.665527c-11.879395,-1.834961 -19.475098,-16.275879 -28.150391,-20.813721c-8.962891,-4.687988 -27.162109,-3.748047 -31.06543,-10.035645c-3.77832,-6.086426 12.359863,-15.947754 15.602051,-22.108398c3.349121,-6.364502 -5.274414,-17.07959 3.753418,-21.619629c8.739258,-4.394531 28.026367,1.712402 39.599609,0.013184c11.956543,-1.755859 24.714355,-12.310303 37.080566,-10.748291c11.970215,1.511963 19.865234,12.341797 28.63916,16.696533c9.064453,4.498779 33.47998,5.825928 37.630371,11.952881c4.01709,5.931152 -20.553711,12.876465 -23.029297,19.104004c-2.557129,6.433594 6.791992,18.120361 -1.856445,22.950195z"
           stroke-dashoffset="0"
           stroke-linejoin="round"
           stroke-linecap="round"
           stroke-width="3"
           fill="#ce5c00" />
        <path
           stroke-miterlimit="4"
           d="m6666.308594,3931.176758c-8.544922,4.579346 -33.043945,-2.25708 -44.840332,0.184814c-11.796875,2.442383 -36.025391,15.549072 -48.95166,14.031982c-12.927734,-1.51709 -19.44873,-13.556885 -30.313477,-17.350098c-10.865723,-3.792969 -30.13916,-3.276123 -35.192383,-8.940918c-5.052246,-5.664795 6.668945,-18.920166 9.706055,-24.818359c3.037109,-5.898193 -5.78125,-16.68457 2.663086,-21.568115c8.444824,-4.883545 34.081055,-3.895508 46.65332,-5.519531c12.572754,-1.624023 26.706543,-9.401123 39.866211,-8.39502c13.160156,1.006104 26.01709,10.77124 36.948242,14.336426c10.931152,3.565186 31.833496,7.519287 37.643066,13.133789c5.809082,5.614502 -8.713867,12.061768 -10.158203,18.17749c-1.443359,6.115723 4.520508,22.148193 -4.023926,26.727539z"
           id="path7689"
           stroke-dashoffset="0"
           stroke-linejoin="round"
           stroke-linecap="round"
           stroke-width="3"
           fill="#fcc916" />
        <path
           stroke-miterlimit="4"
           d="m6269.928711,4095.443604c-9.59375,6.694092 -36.739258,-0.201172 -50.323242,3.170654c-13.584473,3.371582 -37.200684,19.568359 -51.870605,17.658691c-14.67041,-1.90918 -23.091309,-18.186035 -35.089844,-23.717773c-11.997559,-5.531494 -35.373047,-6.24585 -40.909668,-14.462891c-5.535645,-8.217041 8.796387,-24.808105 11.858887,-33.406494c3.062988,-8.598633 -6.330566,-23.898438 3.192383,-30.864746c9.522949,-6.966309 37.454102,-5.311523 51.592773,-7.944824c14.137695,-2.633301 30.688965,-14.065186 45.509766,-12.614258c14.820801,1.450684 27.683594,15.691895 39.733887,21.020752c12.050293,5.329102 36.559082,10.035889 42.625977,18.215088c6.066406,8.179199 -10.23291,18.671631 -12.175781,27.463623c-1.942383,8.791992 5.449219,28.788086 -4.144531,35.482178z"
           id="path7691"
           stroke-dashoffset="0"
           stroke-linejoin="round"
           stroke-linecap="round"
           stroke-width="3"
           fill="#ad7fa8" />
        <path
           stroke-miterlimit="4"
           id="path7687"
           d="m6469.089355,4151.810547c-10.758301,5.882324 -31.302734,6.953613 -46.579102,9.015625c-15.276367,2.062012 -37.642578,11.952148 -52.682129,9.536133c-15.039551,-2.416016 -28.740723,-14.316406 -39.693848,-19.985352c-10.952637,-5.668945 -30.830078,-11.429199 -35.46582,-19.19043c-4.635742,-7.761719 10.26709,-19.71582 13.903809,-27.376465c3.636719,-7.660645 -0.554688,-22.631592 10.663086,-28.154541c11.218262,-5.523193 38.869629,-2.127197 53.452637,-4.597412c14.583008,-2.469971 28.709961,-11.041504 43.874512,-9.0354c15.164063,2.006104 28.791016,14.068115 39.693359,19.985596c10.902832,5.917236 39.475586,8.831055 44.418945,16.396973c4.943359,7.565918 -10.441406,20.028809 -14.523438,27.582031c-4.08252,7.552734 -6.303711,19.940918 -17.062012,25.823242z"
           stroke-dashoffset="0"
           stroke-linejoin="round"
           stroke-linecap="round"
           stroke-width="3"
           fill="#f57900" />
        <path
           stroke-miterlimit="4"
           d="m6308.151855,4411.115234c-13.694824,8.501953 -47.484863,0.725098 -66.663086,3.53418c-19.811035,2.901855 -41.196289,26.479004 -61.272461,23.031738c-19.432617,-3.336914 -31.858887,-29.597168 -46.051758,-37.849121c-14.661621,-8.525391 -44.434082,-6.815918 -50.818848,-18.25c-6.180664,-11.067871 20.218262,-29.000977 25.522461,-40.203613c5.479492,-11.57373 -8.62793,-31.05957 6.141113,-39.31543c14.295898,-7.991211 45.848633,3.114258 64.781738,0.023926c19.559082,-3.192383 40.430664,-22.385742 60.660645,-19.54541c19.582031,2.749512 32.496582,22.443848 46.850098,30.362793c14.829102,8.180664 54.771484,10.59375 61.560059,21.736328c6.571289,10.785156 -33.624023,23.415039 -37.674316,34.740234c-4.182617,11.699219 11.111328,32.95166 -3.035645,41.734375z"
           id="path7693"
           stroke-dashoffset="0"
           stroke-linejoin="round"
           stroke-linecap="round"
           stroke-width="3"
           fill="#ce5c00" />
        <path
           stroke-miterlimit="4"
           id="path7695"
           d="m6515.769531,4289.37793c-11.32666,6.693848 -43.375,-0.201172 -59.412598,3.17041c-16.038086,3.371582 -43.92041,19.568848 -61.239746,17.65918c-17.319824,-1.909668 -27.262695,-18.186035 -41.427246,-23.717773c-14.165039,-5.531738 -41.762695,-6.246094 -48.299316,-14.462891c-6.536133,-8.217285 10.385254,-24.808594 14.000977,-33.406738c3.615723,-8.598633 -7.474609,-23.898438 3.768555,-30.864746c11.242676,-6.966309 44.219727,-5.311523 60.911133,-7.944824c16.691895,-2.633301 36.23291,-14.06543 53.730469,-12.614258c17.498047,1.450684 32.684082,15.691895 46.910645,21.020508c14.227539,5.329102 43.162109,10.036133 50.324707,18.215332c7.163086,8.179199 -12.080566,18.671387 -14.374023,27.463379c-2.293457,8.791992 6.433594,28.788086 -4.893555,35.482422z"
           stroke-dashoffset="0"
           stroke-linejoin="round"
           stroke-linecap="round"
           stroke-width="3"
           fill="#3465a4" />
        <path
           stroke-miterlimit="4"
           id="path7697"
           d="m6708.282227,4386.962402c-13.560547,7.400391 -52.443848,-3.647461 -71.165527,0.298828c-18.722168,3.946777 -57.173828,25.126953 -77.689941,22.675781c-20.516602,-2.45166 -30.865723,-21.908203 -48.109863,-28.038086c-17.244141,-6.129883 -47.831543,-5.294434 -55.851563,-14.44873c-8.019531,-9.154297 10.583496,-30.575195 15.404297,-40.106934c4.820313,-9.531738 -9.176758,-26.962402 4.225586,-34.854492c13.402832,-7.891602 54.089355,-6.29541 74.042969,-8.919434c19.953125,-2.624512 42.384766,-15.192383 63.270508,-13.566406c20.885742,1.625488 41.290527,17.406738 58.63916,23.167969c17.348633,5.760742 50.521484,12.150879 59.741699,21.224121c9.220215,9.072754 -13.82959,19.491699 -16.121094,29.375c-2.291504,9.883301 7.174805,35.791992 -6.38623,43.192383z"
           stroke-dashoffset="0"
           stroke-linejoin="round"
           stroke-linecap="round"
           stroke-width="3"
           fill="#fcaf3e" />
        <path
           stroke-miterlimit="4"
           id="path7699"
           d="m6994.145508,4373.546387c-16.25293,10.447266 -56.35498,0.891113 -79.115234,4.342773c-23.512207,3.565918 -48.891602,32.539063 -72.717285,28.302734c-23.063965,-4.100586 -37.810547,-36.370117 -54.654297,-46.51123c-17.400879,-10.476074 -52.734863,-8.375488 -60.312988,-22.42627c-7.334961,-13.600586 23.995605,-35.637695 30.290527,-49.404785c6.50293,-14.222168 -10.239746,-38.166992 7.287598,-48.312012c16.967285,-9.820313 54.414063,3.82666 76.883789,0.028809c23.212891,-3.922852 47.982422,-27.508789 71.991699,-24.018066c23.239746,3.378418 38.567383,27.57959 55.602051,37.311035c17.598633,10.052734 65.001953,13.018555 73.059082,26.710449c7.79834,13.253906 -39.905273,28.773926 -44.710938,42.690918c-4.964844,14.376953 13.185547,40.492676 -3.604004,51.285645z"
           stroke-dashoffset="0"
           stroke-linejoin="round"
           stroke-linecap="round"
           stroke-width="3"
           fill="#cc0000" />
        <path
           stroke-miterlimit="4"
           d="m6758.855957,4665.645996c-15.80957,8.716797 -61.140137,-4.296387 -82.966797,0.352051c-21.826172,4.648926 -66.654297,29.597168 -90.572266,26.709473c-23.918945,-2.887695 -35.983887,-25.805176 -56.087402,-33.025391c-20.103516,-7.220215 -55.763672,-6.236816 -65.113281,-17.019531c-9.349121,-10.782715 12.338867,-36.01416 17.958496,-47.241211c5.619141,-11.227051 -10.697754,-31.758789 4.926758,-41.054688c15.624512,-9.295898 63.058594,-7.415039 86.320801,-10.506348c23.262207,-3.091309 49.413086,-17.89502 73.762207,-15.97998c24.349121,1.915039 48.137207,20.503418 68.362305,27.289063c20.225586,6.786133 58.899902,14.313477 69.648926,25c10.749023,10.687012 -16.123047,22.959473 -18.794434,34.601074c-2.671387,11.641113 8.364746,42.158691 -7.445313,50.875488z"
           id="path7701"
           stroke-dashoffset="0"
           stroke-linejoin="round"
           stroke-linecap="round"
           stroke-width="3"
           fill="#fcaf3e" />
        <path
           stroke-miterlimit="4"
           d="m7294.775879,4572.918945c-14.970215,9.403809 -57.328613,-0.282715 -78.524902,4.453613c-21.196777,4.736816 -58.047852,27.489746 -80.938965,24.807129c-22.891113,-2.682129 -36.031738,-25.547363 -54.75293,-33.318359c-18.722168,-7.770508 -55.197266,-8.773926 -63.835449,-20.316895c-8.63916,-11.542969 13.724609,-34.850586 18.504395,-46.929199c4.778809,-12.079102 -9.879395,-33.571777 4.980469,-43.358398c14.859375,-9.786133 58.444336,-7.461426 80.504883,-11.160645c22.061035,-3.699219 47.888184,-19.758789 71.01416,-17.720215c23.125977,2.037598 43.197266,22.043457 62.000977,29.529297c18.803223,7.486328 57.046387,14.098633 66.513184,25.588379c9.466309,11.490234 -15.966797,26.229492 -18.998047,38.580566c-3.031738,12.350586 8.50293,40.440918 -6.467773,49.844727z"
           id="path7703"
           stroke-dashoffset="0"
           stroke-linejoin="round"
           stroke-linecap="round"
           stroke-width="3"
           fill="#ad7fa8" />
        <path
           stroke-miterlimit="4"
           id="path7705"
           d="m7097.130371,4702.460449c-18.322754,10.306641 -53.312988,12.183594 -79.330566,15.796387c-26.018066,3.613281 -64.111328,20.940918 -89.725586,16.708496c-25.614258,-4.23291 -48.950195,-25.083984 -67.60498,-35.016113c-18.653809,-9.932129 -52.508301,-20.024902 -60.40332,-33.623535c-7.895508,-13.598633 17.486328,-34.542969 23.679688,-47.965332c6.194824,-13.422363 -0.944824,-39.652344 18.161621,-49.329102c19.105957,-9.677246 66.200195,-3.727051 91.037109,-8.054688c24.837402,-4.328125 48.898926,-19.345703 74.725586,-15.831055c25.826172,3.515137 49.035645,24.648438 67.604004,35.016113c18.568848,10.367676 67.233398,15.473145 75.651855,28.729004c8.418945,13.255859 -17.783203,35.092285 -24.73584,48.325684c-6.952637,13.233887 -10.736328,34.937988 -29.05957,45.244141z"
           stroke-dashoffset="0"
           stroke-linejoin="round"
           stroke-linecap="round"
           stroke-width="3"
           fill="#f57900" />
        <path
           stroke-miterlimit="4"
           id="path7707"
           d="m6737.509277,4093.035156c-13.387695,6.999023 -51.774902,-3.449951 -70.257813,0.282715c-18.483398,3.732422 -56.445313,23.764648 -76.699707,21.445801c-20.254395,-2.318359 -30.47168,-20.719971 -47.495605,-26.517334c-17.023926,-5.797607 -47.22168,-5.007568 -55.13916,-13.665771c-7.916992,-8.657959 10.44873,-28.917236 15.20752,-37.932129c4.758789,-9.014893 -9.059082,-25.500488 4.171875,-32.9646c13.231445,-7.463867 53.399414,-5.954102 73.098633,-8.436035c19.69873,-2.482178 41.844238,-14.368652 62.463379,-12.831055c20.619141,1.537598 40.76416,16.463135 57.891113,21.911865c17.127441,5.44873 49.877441,11.492432 58.97998,20.073486c9.102539,8.581055 -13.65332,18.435059 -15.916016,27.782471c-2.262207,9.347412 7.083984,33.851563 -6.304199,40.850586z"
           stroke-dashoffset="0"
           stroke-linejoin="round"
           stroke-linecap="round"
           stroke-width="3"
           fill="#fcc916" />
        <path
           stroke-miterlimit="4"
           d="m6216.177246,3902.910889c-10.954102,5.972412 -37.981445,0.509521 -53.320801,2.482666c-15.84668,2.038574 -32.95166,18.601318 -49.009277,16.179688c-15.543945,-2.343994 -25.48291,-20.791504 -36.834961,-26.588623c-11.727539,-5.989014 -35.541016,-4.788086 -40.648438,-12.820313c-4.943848,-7.775146 16.172363,-20.373047 20.414551,-28.24292c4.382813,-8.130615 -6.900879,-21.818848 4.911621,-27.618652c11.435547,-5.61377 36.67334,2.187744 51.816895,0.016846c15.644531,-2.24292 32.338379,-15.72583 48.519531,-13.730469c15.663086,1.931396 25.993164,15.766113 37.474121,21.329346c11.86084,5.74707 43.809082,7.442383 49.23877,15.269531c5.256348,7.57666 -26.894531,16.449219 -30.133301,24.404785c-3.346191,8.218994 8.886719,23.148193 -2.428711,29.318115z"
           id="path7709"
           stroke-dashoffset="0"
           stroke-linejoin="round"
           stroke-linecap="round"
           stroke-width="3"
           fill="#ce5c00" />
        <path
           stroke-miterlimit="4"
           id="path7711"
           d="m6946.911133,4508.48291c-17.165527,7.762695 -59.522949,0.662598 -83.562012,3.227051c-24.834473,2.649414 -51.639648,24.175781 -76.805664,21.02832c-24.359375,-3.046387 -39.936035,-27.022461 -57.726563,-34.557129c-18.378906,-7.783691 -55.699219,-6.223145 -63.703125,-16.662109c-7.747559,-10.105469 25.344727,-26.478516 31.993164,-36.707031c6.869629,-10.566895 -10.81543,-28.357422 7.698242,-35.895508c17.92041,-7.295898 57.47168,2.84375 81.20459,0.021973c24.517578,-2.915039 50.679688,-20.438965 76.038574,-17.845215c24.546387,2.510254 40.735352,20.491211 58.728027,27.721191c18.587402,7.469727 68.65625,9.672852 77.166016,19.845703c8.236328,9.847656 -42.148926,21.378906 -47.225098,31.71875c-5.243652,10.681641 13.928223,30.085449 -3.806152,38.104004z"
           stroke-dashoffset="0"
           stroke-linejoin="round"
           stroke-linecap="round"
           stroke-width="3"
           fill="#ce5c00" />
        <path
           stroke-miterlimit="4"
           d="m6548.320313,4494.36377c-13.145996,8.696289 -45.583984,0.741699 -63.993652,3.615234c-19.019043,2.968262 -39.547363,27.084961 -58.819824,23.559082c-18.655273,-3.413574 -30.583984,-30.274414 -44.208496,-38.71582c-14.075195,-8.720215 -42.65625,-6.97168 -48.785645,-18.66748c-5.933105,-11.321289 19.409668,-29.664551 24.501465,-41.124023c5.260254,-11.838379 -8.282715,-31.77002 5.89502,-40.214844c13.724121,-8.174316 44.013672,3.185547 62.188477,0.024414c18.776855,-3.265625 38.812012,-22.898438 58.232422,-19.992676c18.79834,2.8125 31.196289,22.957031 44.975586,31.057129c14.234863,8.368652 52.579102,10.836914 59.095703,22.233887c6.307617,11.032227 -32.278809,23.951172 -36.166016,35.535156c-4.016113,11.967773 10.666504,33.706055 -2.915039,42.689941z"
           id="path7713"
           stroke-dashoffset="0"
           stroke-linejoin="round"
           stroke-linecap="round"
           stroke-width="3"
           fill="#f57900" />
        <path
           stroke-miterlimit="4"
           id="path7715"
           d="m6808.691406,4244.754883c-13.744141,8.410645 -52.633301,-0.252441 -72.094238,3.983398c-19.460938,4.236328 -53.294434,24.585449 -74.311035,22.186035c-21.016602,-2.398926 -33.081055,-22.848145 -50.27002,-29.797852c-17.187988,-6.950195 -50.67627,-7.847168 -58.60791,-18.17041c-7.930664,-10.32373 12.601563,-31.168457 16.989258,-41.971191c4.388184,-10.802246 -9.069824,-30.024414 4.573242,-38.776855c13.642578,-8.752441 53.657715,-6.67334 73.912598,-9.981445c20.254395,-3.308594 43.96582,-17.671387 65.19873,-15.848145c21.232422,1.822754 39.659668,19.714355 56.923828,26.409668c17.263184,6.694824 52.374512,12.608887 61.065918,22.884766c8.691406,10.275879 -14.65918,23.458008 -17.442383,34.503906c-2.783203,11.045898 7.806641,36.168457 -5.937988,44.578125z"
           stroke-dashoffset="0"
           stroke-linejoin="round"
           stroke-linecap="round"
           stroke-width="3"
           fill="#ad7fa8" />
        <path
           stroke-miterlimit="4"
           d="m6330.032227,3993.538574c-10.758301,5.882324 -31.302734,6.953613 -46.579102,9.015869c-15.276367,2.062012 -37.642578,11.951904 -52.682129,9.536133c-15.039551,-2.415771 -28.740723,-14.31665 -39.693848,-19.985352c-10.952637,-5.668945 -30.830078,-11.429199 -35.46582,-19.190674c-4.635742,-7.761475 10.26709,-19.715332 13.903809,-27.376221c3.636719,-7.660889 -0.554688,-22.631592 10.663086,-28.154541c11.218262,-5.523193 38.869629,-2.127197 53.452637,-4.597412c14.583008,-2.469971 28.709961,-11.041504 43.874512,-9.0354c15.164063,2.006104 28.791016,14.068115 39.693359,19.985596c10.902832,5.917236 39.475586,8.831055 44.418945,16.396973c4.943359,7.565918 -10.441406,20.028809 -14.523438,27.582031c-4.08252,7.552979 -6.303711,19.940674 -17.062012,25.822998z"
           id="path7717"
           stroke-dashoffset="0"
           stroke-linejoin="round"
           stroke-linecap="round"
           stroke-width="3"
           fill="#f57900" />
        <path
           stroke-miterlimit="4"
           d="m6298.589355,4217.277344c-9.891602,6.602051 -38.253906,-3.254395 -51.90918,0.266602c-13.65625,3.520996 -41.704102,22.417969 -56.668945,20.230469c-14.964844,-2.187012 -22.513672,-19.545898 -35.091797,-25.014648c-12.577637,-5.46875 -34.88916,-4.723633 -40.73877,-12.891113c-5.849609,-8.16748 7.720215,-27.278809 11.23584,-35.782715c3.516113,-8.503906 -6.693359,-24.055176 3.08252,-31.096191c9.775879,-7.041016 39.453613,-5.616699 54.007813,-7.958008c14.554199,-2.341309 30.916016,-13.554199 46.150391,-12.104004c15.234375,1.450684 30.118164,15.530273 42.772461,20.669922c12.654297,5.140137 36.851563,10.841309 43.577148,18.936035c6.725098,8.094727 -10.087891,17.390625 -11.759766,26.208008c-1.671387,8.817871 5.233887,31.933105 -4.657715,38.535645z"
           id="path7719"
           stroke-dashoffset="0"
           stroke-linejoin="round"
           stroke-linecap="round"
           stroke-width="3"
           fill="#fcaf3e" />
      </g>
      <path
         stroke-miterlimit="4"
         id="path7788"
         d="m2186.073242,961.37561c1.522949,0.316345 1.903809,1.042419 3.182617,2.128357c1.664063,1.863708 5.03418,7.445129 4.655029,8.357666c-0.502686,1.644104 -4.736816,-7.671692 -7.837646,-10.486023zm28.590332,4.063965c-3.614258,6.716248 -3.954346,7.219482 -6.773438,7.12207c0.598633,-1.23938 2.317383,-2.248657 3.523193,-3.42627c1.285645,-1.255371 1.984131,-3.602905 3.250244,-3.695801zm-12.70459,0.244873c4.11377,4.388306 4.552979,5.968811 3.860107,6.462891c-1.266846,0.477112 -0.990234,-0.768005 -3.860107,-6.462891zm-7.696045,0.941101c1.012695,-0.168396 1.750488,1.351501 2.153076,2.594666c1.027832,3.174316 1.039551,2.716187 0.346436,2.985229c-0.955078,0.37085 -0.948975,-2.867981 -2.499512,-5.579895zm-6.811768,-0.291504c1.059814,0.030945 1.611328,1.316833 2.354492,2.503723c0.746582,2.263184 2.919189,3.669128 1.386963,3.755005c-1.523682,0.085571 -2.577637,-3.57251 -3.741455,-6.258728zm11.36084,0.870544c3.342773,3.63916 4.057861,4.755371 2.715332,4.90564c-0.865723,0.096802 -0.934082,-0.792358 -1.922363,-2.287598c-0.636719,-0.963013 -1.43042,-1.806885 -0.792969,-2.618042z"
         stroke-dashoffset="0"
         stroke-linejoin="round"
         stroke-linecap="round"
         stroke-width="3"
         fill="#1e9e00"
         opacity="0.698" />
    </g>
  </g>
</svg>
